<svg id="レイヤー_3" data-name="レイヤー 3" xmlns="http://www.w3.org/2000/svg" viewBox="0 0 90.65 90.65"><defs><style>.cls-1{fill:#b8d2ee;}.cls-2{fill:#bc3b20;}.cls-3{fill:#f2f2f2;}</style></defs><title>logo</title><circle class="cls-1" cx="45.32" cy="45.32" r="45.32"/><polygon class="cls-2" points="46.01 4.01 45.37 4.01 45.28 4.01 44.63 4.01 43.67 17.57 45.28 17.57 45.37 17.57 46.97 17.57 46.01 4.01"/><polygon class="cls-2" points="45.37 17.57 45.28 17.57 42.36 17.57 42.36 21.21 45.28 21.21 45.37 21.21 48.28 21.21 48.28 17.57 45.37 17.57"/><polygon class="cls-2" points="48.28 25.65 45.37 25.65 45.28 25.65 42.36 25.65 40.78 37.5 45.28 37.5 45.37 37.5 49.87 37.5 48.28 25.65"/><polygon class="cls-3" points="45.37 21.21 45.28 21.21 40.48 21.21 41.1 25.65 45.28 25.65 45.37 25.65 49.54 25.65 50.17 21.21 45.37 21.21"/><path class="cls-2" d="M53.65,41.65H46.35L39,81.25h4a7.06,7.06,0,1,1,14.12,0h4Z" transform="translate(-4.68 -4.16)"/><polygon class="cls-3" points="45.37 37.5 45.28 37.5 37.05 37.5 39.8 42.94 45.28 42.94 45.37 42.94 50.84 42.94 53.59 37.5 45.37 37.5"/><polygon class="cls-3" points="45.54 49.45 45.1 49.45 18.82 49.45 18.82 53.51 45.1 53.51 45.54 53.51 71.83 53.51 71.83 49.45 45.54 49.45"/><polygon class="cls-3" points="30.21 63.96 30.21 63.74 30.21 50.61 26.15 50.61 26.15 63.74 26.15 63.96 26.15 77.09 30.21 77.09 30.21 63.96"/><polygon class="cls-3" points="64.5 64.39 64.5 64.18 64.5 51.48 60.43 51.48 60.43 64.18 60.43 64.39 60.43 77.09 64.5 77.09 64.5 64.39"/><polygon class="cls-3" points="66.08 77.09 66.18 77.09 71.83 77.09 71.83 73.03 66.18 73.03 66.08 73.03 60.43 73.03 60.43 77.09 66.08 77.09"/><polygon class="cls-3" points="64.47 65.3 64.53 65.3 68.57 65.3 68.57 61.24 64.53 61.24 64.47 61.24 60.43 61.24 60.43 65.3 64.47 65.3"/></svg>